<?xml version="1.0" encoding="UTF-8"?>
<svg width="72px" height="69px" viewBox="0 0 72 69" version="1.1" xmlns="http://www.w3.org/2000/svg" xmlns:xlink="http://www.w3.org/1999/xlink">
    <!-- Generator: Sketch 47 (45396) - http://www.bohemiancoding.com/sketch -->
    <title>services/app-concept</title>
    <desc>Created with Sketch.</desc>
    <defs></defs>
    <g id="Page-1" stroke="none" stroke-width="1" fill="none" fill-rule="evenodd">
        <path d="M69.12,34.4103896 L51.84,34.4103896 C50.2494199,34.4103896 48.96,35.6942276 48.96,37.2779221 L48.96,65.9532468 C48.96,67.5369412 50.2494199,68.8207792 51.84,68.8207792 L69.12,68.8207792 C70.7105801,68.8207792 72,67.5369412 72,65.9532468 L72,37.2779221 C72,35.6942276 70.7105801,34.4103896 69.12,34.4103896 Z M61.92,63.0857143 L59.04,63.0857143 C58.24471,63.0857143 57.6,62.4437953 57.6,61.6519481 C57.6,60.8601008 58.24471,60.2181818 59.04,60.2181818 L61.92,60.2181818 C62.71529,60.2181818 63.36,60.8601008 63.36,61.6519481 C63.36,62.4437953 62.71529,63.0857143 61.92,63.0857143 Z M2.88,43.012987 L46.08,43.012987 L46.08,57.3506494 L40.32,57.3506494 L40.32,65.9532468 L44.64,65.9532468 C45.43529,65.9532468 46.08,66.5951658 46.08,67.387013 C46.08,68.1788602 45.43529,68.8207792 44.64,68.8207792 L21.6,68.8207792 C20.80471,68.8207792 20.16,68.1788602 20.16,67.387013 C20.16,66.5951658 20.80471,65.9532468 21.6,65.9532468 L25.92,65.9532468 L25.92,57.3506494 L4.32,57.3506494 C1.93518267,57.3481206 0.00253974373,55.4238441 0,53.0493506 L0,4.3012987 C0.00253974373,1.92680526 1.93518267,0.00252874916 4.32,-7.10542736e-15 L61.92,-7.10542736e-15 C64.3048173,0.00252874916 66.2374603,1.92680526 66.24,4.3012987 L66.24,30.1090909 C66.24,30.9009381 65.59529,31.5428571 64.8,31.5428571 C64.00471,31.5428571 63.36,30.9009381 63.36,30.1090909 L63.36,4.3012987 C63.36,3.50945148 62.71529,2.86753247 61.92,2.86753247 L4.32,2.86753247 C3.52470996,2.86753247 2.88,3.50945148 2.88,4.3012987 L2.88,43.012987 Z M37.44,65.9532468 L37.44,57.3506494 L28.8,57.3506494 L28.8,65.9532468 L37.44,65.9532468 Z" id="services/app-concept" fill="#D5DAE2" fill-rule="nonzero"></path>
    </g>
</svg>