<?xml version="1.0" encoding="UTF-8"?>
<svg width="72px" height="72px" viewBox="0 0 72 72" version="1.1" xmlns="http://www.w3.org/2000/svg" xmlns:xlink="http://www.w3.org/1999/xlink">
    <!-- Generator: Sketch 47 (45396) - http://www.bohemiancoding.com/sketch -->
    <title>services/branding</title>
    <desc>Created with Sketch.</desc>
    <defs></defs>
    <g id="Page-1" stroke="none" stroke-width="1" fill="none" fill-rule="evenodd">
        <path d="M69.12,11.52 L66.24,11.52 L66.24,60.48 L69.12,60.48 C70.7105801,60.48 72,61.7694199 72,63.36 L72,69.12 C72,70.7105801 70.7105801,72 69.12,72 L63.36,72 C61.7694199,72 60.48,70.7105801 60.48,69.12 L60.48,66.24 L38.88,66.24 C38.08471,66.24 37.44,65.59529 37.44,64.8 C37.44,64.00471 38.08471,63.36 38.88,63.36 L60.48,63.36 C60.48,61.7694199 61.7694199,60.48 63.36,60.48 L63.36,11.52 C61.7694199,11.52 60.48,10.2305801 60.48,8.64 L11.52,8.64 C11.52,10.2305801 10.2305801,11.52 8.64,11.52 L8.64,33.12 C8.64,33.91529 7.99529004,34.56 7.2,34.56 C6.40470996,34.56 5.76,33.91529 5.76,33.12 L5.76,11.52 L2.88,11.52 C1.28941992,11.52 1.9478988e-16,10.2305801 0,8.64 L0,2.88 C1.9478988e-16,1.28941992 1.28941992,-9.73949402e-17 2.88,0 L8.64,0 C10.2305801,9.73949402e-17 11.52,1.28941992 11.52,2.88 L11.52,5.76 L60.48,5.76 L60.48,2.88 C60.48,1.28941992 61.7694199,-9.73949402e-17 63.36,0 L69.12,0 C70.7105801,9.73949402e-17 72,1.28941992 72,2.88 L72,8.64 C72,10.2305801 70.7105801,11.52 69.12,11.52 Z M33.302304,26.479296 L45.52128,38.697984 L13.484448,70.734528 C12.6741657,71.5445891 11.5753878,71.9997631 10.429632,72 L2.88,72 C1.28941992,72 1.9478988e-16,70.7105801 0,69.12 L0,61.571232 C-5.54167661e-05,60.4251642 0.455145595,59.3260102 1.265472,58.515552 L33.302304,26.479296 Z M47.557728,36.6624 L35.3376,24.442848 L38.356416,21.42576 C40.0434413,19.7389261 42.7784467,19.7389261 44.465472,21.42576 L50.574816,27.535104 C51.3852195,28.3452939 51.8405175,29.4442754 51.8405175,30.590208 C51.8405175,31.7361406 51.3852195,32.8351221 50.574816,33.645312 L47.557728,36.6624 Z" id="services/branding" fill="#D5DAE2" fill-rule="nonzero"></path>
    </g>
</svg>