<?xml version="1.0" encoding="UTF-8"?>
<svg width="41px" height="72px" viewBox="0 0 41 72" version="1.1" xmlns="http://www.w3.org/2000/svg" xmlns:xlink="http://www.w3.org/1999/xlink">
    <!-- Generator: Sketch 47 (45396) - http://www.bohemiancoding.com/sketch -->
    <title>services/mobile-app</title>
    <desc>Created with Sketch.</desc>
    <defs></defs>
    <g id="Page-1" stroke="none" stroke-width="1" fill="none" fill-rule="evenodd">
        <path d="M36.4444444,0 C38.858704,0.00253974373 40.8152067,1.93518267 40.8177778,4.32 L40.8177778,67.68 C40.8152067,70.0648173 38.858704,71.9974603 36.4444444,72 L4.37333333,72 C1.95907381,71.9974603 0.00257109859,70.0648173 0,67.68 L0,4.32 C0.00257109859,1.93518267 1.95907381,0.00253974373 4.37333333,0 L36.4444444,0 Z M37.9022222,54.72 L37.9022222,4.32 C37.9022222,3.52470996 37.2495529,2.88 36.4444444,2.88 L4.37333333,2.88 C3.5682249,2.88 2.91555556,3.52470996 2.91555556,4.32 L2.91555556,54.72 L37.9022222,54.72 Z M30.6133333,8.64 C31.4184418,8.64 32.0711111,9.28470996 32.0711111,10.08 C32.0711111,10.87529 31.4184418,11.52 30.6133333,11.52 L10.2044444,11.52 C9.39933601,11.52 8.74666667,10.87529 8.74666667,10.08 C8.74666667,9.28470996 9.39933601,8.64 10.2044444,8.64 L30.6133333,8.64 Z M20.4088889,66.24 C22.0191058,66.24 23.3244444,64.9505801 23.3244444,63.36 C23.3244444,61.7694199 22.0191058,60.48 20.4088889,60.48 C18.798672,60.48 17.4933333,61.7694199 17.4933333,63.36 C17.4933333,64.9505801 18.798672,66.24 20.4088889,66.24 Z" id="services/mobile-app" fill="#D5DAE2" fill-rule="nonzero"></path>
    </g>
</svg>