<?xml version="1.0" encoding="UTF-8"?>
<svg width="62px" height="72px" viewBox="0 0 62 72" version="1.1" xmlns="http://www.w3.org/2000/svg" xmlns:xlink="http://www.w3.org/1999/xlink">
    <!-- Generator: Sketch 47 (45396) - http://www.bohemiancoding.com/sketch -->
    <title>services/one-page</title>
    <desc>Created with Sketch.</desc>
    <defs></defs>
    <g id="Page-1" stroke="none" stroke-width="1" fill="none" fill-rule="evenodd">
        <path d="M61.5570525,66.5239437 L61.5570525,4.86760563 C61.5570525,2.17930127 59.3812605,1.64611166e-16 56.6972852,0 L4.8597673,0 C2.17579193,-1.64611166e-16 0,2.17930127 0,4.86760563 L0,66.5239437 C0,69.212248 2.17579193,71.3915493 4.8597673,71.3915493 L56.6972852,71.3915493 C59.3812605,71.3915493 61.5570525,69.212248 61.5570525,66.5239437 Z M11.339457,12.9802817 L22.6789141,12.9802817 C23.5735725,12.9802817 24.2988365,13.7067154 24.2988365,14.6028169 C24.2988365,15.4989184 23.5735725,16.2253521 22.6789141,16.2253521 L11.339457,16.2253521 C10.4447986,16.2253521 9.7195346,15.4989184 9.7195346,14.6028169 C9.7195346,13.7067154 10.4447986,12.9802817 11.339457,12.9802817 Z M11.339457,22.715493 L22.6789141,22.715493 C23.5735725,22.715493 24.2988365,23.4419267 24.2988365,24.3380282 C24.2988365,25.2341296 23.5735725,25.9605634 22.6789141,25.9605634 L11.339457,25.9605634 C10.4447986,25.9605634 9.7195346,25.2341296 9.7195346,24.3380282 C9.7195346,23.4419267 10.4447986,22.715493 11.339457,22.715493 Z M11.339457,32.4507042 L22.6789141,32.4507042 C23.5735725,32.4507042 24.2988365,33.177138 24.2988365,34.0732394 C24.2988365,34.9693409 23.5735725,35.6957746 22.6789141,35.6957746 L11.339457,35.6957746 C10.4447986,35.6957746 9.7195346,34.9693409 9.7195346,34.0732394 C9.7195346,33.177138 10.4447986,32.4507042 11.339457,32.4507042 Z M50.2175954,55.1661972 L11.339457,55.1661972 C10.4447986,55.1661972 9.7195346,54.4397634 9.7195346,53.543662 C9.7195346,52.6475605 10.4447986,51.9211268 11.339457,51.9211268 L50.2175954,51.9211268 C51.1122539,51.9211268 51.8375179,52.6475605 51.8375179,53.543662 C51.8375179,54.4397634 51.1122539,55.1661972 50.2175954,55.1661972 Z M50.2175954,45.4309859 L11.339457,45.4309859 C10.4447986,45.4309859 9.7195346,44.7045522 9.7195346,43.8084507 C9.7195346,42.9123493 10.4447986,42.1859155 11.339457,42.1859155 L50.2175954,42.1859155 C51.1122539,42.1859155 51.8375179,42.9123493 51.8375179,43.8084507 C51.8375179,44.7045522 51.1122539,45.4309859 50.2175954,45.4309859 Z M51.8375179,32.4507042 C51.8375179,34.2429071 50.3869899,35.6957746 48.597673,35.6957746 L35.6382935,35.6957746 C33.8489766,35.6957746 32.3984487,34.2429071 32.3984487,32.4507042 L32.3984487,16.2253521 C32.3984487,14.4331492 33.8489766,12.9802817 35.6382935,12.9802817 L48.597673,12.9802817 C50.3869899,12.9802817 51.8375179,14.4331492 51.8375179,16.2253521 L51.8375179,32.4507042 Z" id="services/one-page" fill="#D5DAE2" fill-rule="nonzero"></path>
    </g>
</svg>