<?xml version="1.0" encoding="UTF-8"?>
<svg width="72px" height="60px" viewBox="0 0 72 60" version="1.1" xmlns="http://www.w3.org/2000/svg" xmlns:xlink="http://www.w3.org/1999/xlink">
    <!-- Generator: Sketch 47 (45396) - http://www.bohemiancoding.com/sketch -->
    <title>services/prototype</title>
    <desc>Created with Sketch.</desc>
    <defs></defs>
    <g id="Page-1" stroke="none" stroke-width="1" fill="none" fill-rule="evenodd">
        <path d="M24,29.8507463 C15.7157288,29.8507463 9,23.1684291 9,14.9253731 C9,6.68231717 15.7157288,0 24,0 C32.2842712,0 39,6.68231717 39,14.9253731 C39,23.1684291 32.2842712,29.8507463 24,29.8507463 Z M24,32.8358209 C37.254834,32.8358209 48,43.5275284 48,56.7164179 L48,58.2089552 C48,59.0332608 47.3284271,59.7014925 46.5,59.7014925 L1.5,59.7014925 C0.671572875,59.7014925 1.01453063e-16,59.0332608 0,58.2089552 L0,56.7164179 C1.623249e-15,43.5275284 10.745166,32.8358209 24,32.8358209 Z M71.5605,9.39253731 C72.1458244,9.97562012 72.1454215,10.9203967 71.5596,11.5029851 L56.5596,26.4283582 C56.0111556,26.9746998 55.1344499,27.0145754 54.5382,26.5202985 L45.5382,19.0576119 C44.9014709,18.5295618 44.8155096,17.5878896 45.3462,16.9543284 C45.8768904,16.3207671 46.8232709,16.2352334 47.46,16.7632836 L55.4076,23.3543284 L69.4395,9.39253731 C70.0252498,8.8098777 70.9747502,8.8098777 71.5605,9.39253731 Z" id="services/prototype" fill="#D5DAE2" fill-rule="nonzero"></path>
    </g>
</svg>