<?xml version="1.0" encoding="UTF-8"?>
<svg width="72px" height="64px" viewBox="0 0 72 64" version="1.1" xmlns="http://www.w3.org/2000/svg" xmlns:xlink="http://www.w3.org/1999/xlink">
    <!-- Generator: Sketch 47 (45396) - http://www.bohemiancoding.com/sketch -->
    <title>react</title>
    <desc>Created with Sketch.</desc>
    <defs></defs>
    <g id="Page-1" stroke="none" stroke-width="1" fill="none" fill-rule="evenodd">
        <path d="M71.897561,31.9756098 C71.897561,27.2195122 65.9414634,22.7121951 56.8097561,19.9170732 C58.9170732,10.6097561 57.9804878,3.20487805 53.8536585,0.834146341 C52.902439,0.27804878 51.7902439,0.0146341463 50.5756098,0.0146341463 L50.5756098,3.27804878 C51.2487805,3.27804878 51.7902439,3.4097561 52.2439024,3.65853659 C54.2341463,4.8 55.097561,9.14634146 54.4243902,14.7365854 C54.2634146,16.1121951 54,17.5609756 53.6780488,19.0390244 C50.8097561,18.3365854 47.6780488,17.795122 44.3853659,17.4439024 C42.4097561,14.7365854 40.3609756,12.2780488 38.297561,10.1268293 C43.0682927,5.69268293 47.5463415,3.26341463 50.5902439,3.26341463 L50.5902439,0 C50.5902439,0 50.5902439,0 50.5902439,0 C46.5658537,0 41.297561,2.86829268 35.9707317,7.84390244 C30.6439024,2.89756098 25.3756098,0.0585365854 21.3512195,0.0585365854 L21.3512195,3.32195122 C24.3804878,3.32195122 28.8731707,5.73658537 33.6439024,10.1414634 C31.595122,12.2926829 29.5463415,14.7365854 27.6,17.4439024 C24.2926829,17.795122 21.1609756,18.3365854 18.2926829,19.0536585 C17.9560976,17.5902439 17.7073171,16.1707317 17.5317073,14.8097561 C16.8439024,9.2195122 17.6926829,4.87317073 19.6682927,3.71707317 C20.1073171,3.45365854 20.6780488,3.33658537 21.3512195,3.33658537 L21.3512195,0.0731707317 C21.3512195,0.0731707317 21.3512195,0.0731707317 21.3512195,0.0731707317 C20.1219512,0.0731707317 19.0097561,0.336585366 18.0439024,0.892682927 C13.9317073,3.26341463 13.0097561,10.6536585 15.1317073,19.9317073 C6.02926829,22.7414634 0.102439024,27.2341463 0.102439024,31.9756098 C0.102439024,36.7317073 6.05853659,41.2390244 15.1902439,44.0341463 C13.0829268,53.3414634 14.0195122,60.7463415 18.1463415,63.1170732 C19.097561,63.6731707 20.2097561,63.9365854 21.4390244,63.9365854 C25.4634146,63.9365854 30.7317073,61.0682927 36.0585366,56.0926829 C41.3853659,61.0390244 46.6536585,63.8780488 50.6780488,63.8780488 C51.9073171,63.8780488 53.0195122,63.6146341 53.9853659,63.0585366 C58.097561,60.6878049 59.0195122,53.297561 56.897561,44.0195122 C65.9707317,41.2243902 71.897561,36.7170732 71.897561,31.9756098 Z M52.8439024,22.2146341 C52.302439,24.102439 51.6292683,26.0487805 50.8682927,27.995122 C50.2682927,26.8243902 49.6390244,25.6536585 48.9512195,24.4829268 C48.2780488,23.3121951 47.5609756,22.1707317 46.8439024,21.0585366 C48.9219512,21.3658537 50.9268293,21.7463415 52.8439024,22.2146341 Z M46.1414634,37.8 C45,39.7756098 43.8292683,41.6487805 42.6146341,43.3902439 C40.4341463,43.5804878 38.2243902,43.6829268 36,43.6829268 C33.7902439,43.6829268 31.5804878,43.5804878 29.4146341,43.404878 C28.2,41.6634146 27.0146341,39.804878 25.8731707,37.8439024 C24.7609756,35.9268293 23.7512195,33.9804878 22.8292683,32.0195122 C23.7365854,30.0585366 24.7609756,28.097561 25.8585366,26.1804878 C27,24.204878 28.1707317,22.3317073 29.3853659,20.5902439 C31.5658537,20.4 33.7756098,20.297561 36,20.297561 C38.2097561,20.297561 40.4195122,20.4 42.5853659,20.5756098 C43.8,22.3170732 44.9853659,24.1756098 46.1268293,26.1365854 C47.2390244,28.0536585 48.2487805,30 49.1707317,31.9609756 C48.2487805,33.9219512 47.2390244,35.8829268 46.1414634,37.8 Z M50.8682927,35.897561 C51.6585366,37.8585366 52.3317073,39.8195122 52.8878049,41.7219512 C50.9707317,42.1902439 48.9512195,42.5853659 46.8585366,42.8926829 C47.5756098,41.7658537 48.2926829,40.6097561 48.9658537,39.4243902 C49.6390244,38.2536585 50.2682927,37.0682927 50.8682927,35.897561 Z M36.0292683,51.5121951 C34.6682927,50.1073171 33.3073171,48.5414634 31.9609756,46.8292683 C33.2780488,46.8878049 34.6243902,46.9317073 35.9853659,46.9317073 C37.3609756,46.9317073 38.7219512,46.902439 40.0536585,46.8292683 C38.7365854,48.5414634 37.3756098,50.1073171 36.0292683,51.5121951 Z M25.1414634,42.8926829 C23.0634146,42.5853659 21.0585366,42.204878 19.1414634,41.7365854 C19.6829268,39.8487805 20.3560976,37.902439 21.1170732,35.9560976 C21.7170732,37.1268293 22.3463415,38.297561 23.0341463,39.4682927 C23.7219512,40.6390244 24.4243902,41.7804878 25.1414634,42.8926829 Z M35.9560976,12.4390244 C37.3170732,13.8439024 38.6780488,15.4097561 40.0243902,17.1219512 C38.7073171,17.0634146 37.3609756,17.0195122 36,17.0195122 C34.6243902,17.0195122 33.2634146,17.0487805 31.9317073,17.1219512 C33.2487805,15.4097561 34.6097561,13.8439024 35.9560976,12.4390244 Z M25.1268293,21.0585366 C24.4097561,22.1853659 23.6926829,23.3414634 23.0195122,24.5268293 C22.3463415,25.697561 21.7170732,26.8682927 21.1170732,28.0390244 C20.3268293,26.0780488 19.6536585,24.1170732 19.097561,22.2146341 C21.0146341,21.7609756 23.0341463,21.3658537 25.1268293,21.0585366 Z M11.8829268,39.3804878 C6.70243902,37.1707317 3.35121951,34.2731707 3.35121951,31.9756098 C3.35121951,29.6780488 6.70243902,26.7658537 11.8829268,24.5707317 C13.1414634,24.0292683 14.5170732,23.5463415 15.9365854,23.0926829 C16.7707317,25.9609756 17.8682927,28.9463415 19.2292683,32.004878 C17.8829268,35.0487805 16.8,38.0195122 15.9804878,40.8731707 C14.5317073,40.4195122 13.1560976,39.9219512 11.8829268,39.3804878 Z M19.7560976,60.2926829 C17.7658537,59.1512195 16.902439,54.804878 17.5756098,49.2146341 C17.7365854,47.8390244 18,46.3902439 18.3219512,44.9121951 C21.1902439,45.6146341 24.3219512,46.1560976 27.6146341,46.5073171 C29.5902439,49.2146341 31.6390244,51.6731707 33.702439,53.8243902 C28.9317073,58.2585366 24.4536585,60.6878049 21.4097561,60.6878049 C20.7512195,60.6731707 20.195122,60.5414634 19.7560976,60.2926829 Z M54.4682927,49.1414634 C55.1560976,54.7317073 54.3073171,59.0780488 52.3317073,60.2341463 C51.8926829,60.497561 51.3219512,60.6146341 50.6487805,60.6146341 C47.6195122,60.6146341 43.1268293,58.2 38.3560976,53.795122 C40.404878,51.6439024 42.4536585,49.2 44.4,46.4926829 C47.7073171,46.1414634 50.8390244,45.6 53.7073171,44.8829268 C54.0439024,46.3609756 54.3073171,47.7804878 54.4682927,49.1414634 Z M60.102439,39.3804878 C58.8439024,39.9219512 57.4682927,40.404878 56.0487805,40.8585366 C55.2146341,37.9902439 54.1170732,35.004878 52.7560976,31.9463415 C54.102439,28.902439 55.1853659,25.9317073 56.004878,23.0780488 C57.4536585,23.5317073 58.8292683,24.0292683 60.1170732,24.5707317 C65.297561,26.7804878 68.6487805,29.6780488 68.6487805,31.9756098 C68.6341463,34.2731707 65.2829268,37.1853659 60.102439,39.3804878 Z M35.9853659,38.6634146 C32.2917932,38.6634146 29.297561,35.6691824 29.297561,31.9756098 C29.297561,28.2820371 32.2917932,25.2878049 35.9853659,25.2878049 C39.6789385,25.2878049 42.6731707,28.2820371 42.6731707,31.9756098 C42.6731707,35.6691824 39.6789385,38.6634146 35.9853659,38.6634146 Z" id="react" fill="#D5DAE2" fill-rule="nonzero"></path>
    </g>
</svg>