<?xml version="1.0" encoding="UTF-8"?>
<svg width="72px" height="69px" viewBox="0 0 72 69" version="1.1" xmlns="http://www.w3.org/2000/svg" xmlns:xlink="http://www.w3.org/1999/xlink">
    <!-- Generator: Sketch 47 (45396) - http://www.bohemiancoding.com/sketch -->
    <title>redux</title>
    <desc>Created with Sketch.</desc>
    <defs></defs>
    <g id="Page-1" stroke="none" stroke-width="1" fill="none" fill-rule="evenodd">
        <path d="M49.888393,47.7355968 L49.888393,47.7355968 C44.8491266,58.0889988 35.961693,65.0523488 24.2339456,67.3429244 C22.4014851,67.8010396 20.5690246,67.9842856 18.736564,67.9842856 C11.9564601,67.9842856 5.81771731,65.1439718 2.79415744,60.5628205 C-1.23725573,54.4240777 -2.61160112,41.4136079 10.6737377,31.7931902 C10.9486068,33.2591586 11.4983449,35.2748652 11.8648371,36.4659645 C10.1239996,37.7486869 7.37530876,40.3141316 5.63447126,43.7958066 C3.16064954,48.651827 3.43551862,53.5078474 6.36745547,57.9973757 C8.38316205,61.0209356 11.589968,62.8533961 15.7130042,63.4031343 C20.7522706,64.0444955 25.7915371,63.1282652 30.6475575,60.5628205 C37.7941535,56.8062764 42.5585509,52.3167481 45.6737338,46.1780053 C44.8491266,45.3533981 44.2993884,44.1622987 44.2077654,42.7879533 C44.1161424,39.9476395 46.315095,37.5654408 49.1554088,37.4738178 L49.3386549,37.4738178 C52.0873457,37.4738178 54.3779213,39.6727704 54.4695443,42.4214612 C54.5611674,45.170152 52.5454608,47.4607277 49.888393,47.7355968 Z M66.0140457,36.3743415 C72.8857727,44.1622987 73.0690187,53.3246014 70.4119509,58.6387369 C67.9381292,63.4947573 61.4328943,68.3507777 52.6370838,68.3507777 C48.7889167,68.3507777 44.7575035,67.3429244 40.8177134,65.5104639 C42.1004358,64.5942336 43.9328963,63.1282652 44.9407496,62.2120349 C46.7732101,63.0366422 50.2548851,64.1361185 53.9198062,64.1361185 C59.6004338,64.1361185 63.9067161,61.4790507 66.4721608,56.6230303 C68.1213753,53.4162244 68.2129983,49.6596803 66.6554069,45.8115132 C64.8229463,41.0471158 61.5245174,37.1073257 56.9433661,34.0837658 C50.9878693,30.1439757 44.3910114,28.1282691 37.4276614,28.1282691 L35.7784469,28.1282691 C35.0454627,29.8691066 33.3046252,31.151829 31.2889187,31.243452 L31.1056726,31.243452 C28.3569818,31.243452 26.0664061,29.0444994 25.9747831,26.2958086 C25.8831601,23.4554948 28.0821127,21.0732961 30.9224265,20.9816731 L31.1056726,20.9816731 C33.0297562,20.9816731 34.7705937,22.0811494 35.5952009,23.7303638 L37.0611693,23.7303638 C48.7889167,23.7303638 59.0506957,28.2198921 66.0140457,36.3743415 Z M19.4695482,49.2931882 L19.4695482,49.2931882 C19.3779252,48.2853349 19.6527943,47.2774816 20.1109094,46.6361205 C14.98002,37.7486869 12.2313292,26.4790546 16.4459884,14.7513073 C19.4695482,5.95549672 27.0742594,0 35.3203318,0 C44.1161424,0 53.278445,7.69633422 54.3779213,22.5392645 C53.0035759,22.0811494 50.9878693,21.4397882 49.79677,21.1649191 C49.5219009,16.3088987 45.3988647,4.21465922 35.6868239,4.39790527 C32.2051489,4.48952829 27.0742594,6.13874277 24.4171917,9.52879475 C21.2103857,13.4685849 19.3779252,18.2329823 19.0114331,23.7303638 C18.461695,31.060206 20.0192864,37.8403099 23.7758305,44.0706757 C23.9590765,43.9790527 24.2339456,43.9790527 24.4171917,43.9790527 L24.6004377,43.9790527 C27.3491285,43.9790527 29.6397042,46.1780053 29.7313272,48.9266961 C29.8229502,51.7670099 27.6239976,54.1492086 24.7836838,54.2408316 L24.6004377,54.2408316 C21.8517469,54.2408316 19.5611713,52.041879 19.4695482,49.2931882 Z" id="redux" fill="#D5DAE2" fill-rule="nonzero"></path>
    </g>
</svg>