<?xml version="1.0" encoding="UTF-8"?>
<svg width="72px" height="50px" viewBox="0 0 72 50" version="1.1" xmlns="http://www.w3.org/2000/svg" xmlns:xlink="http://www.w3.org/1999/xlink">
    <!-- Generator: Sketch 47 (45396) - http://www.bohemiancoding.com/sketch -->
    <title>sketch</title>
    <desc>Created with Sketch.</desc>
    <defs></defs>
    <g id="Page-1" stroke="none" stroke-width="1" fill="none" fill-rule="evenodd">
        <path d="M13.7319588,0 L31.9175258,0 L18.185567,13.7319588 L13.7319588,0 Z M10.0206186,1.11340206 L14.8453608,14.8453608 L0,14.8453608 L10.0206186,1.11340206 Z M0.371134021,18.185567 L15.9587629,18.185567 L30.0618557,45.6494845 L0.371134021,18.185567 Z M58.2680412,0 L53.814433,13.7319588 L40.0824742,0 L58.2680412,0 Z M61.9793814,1.11340206 L72,14.8453608 L57.1546392,14.8453608 L61.9793814,1.11340206 Z M71.257732,18.185567 L41.5670103,45.6494845 L55.6701031,18.185567 L71.257732,18.185567 Z M20.0412371,18.185567 L51.9587629,18.556701 L35.628866,49.7319588 L20.0412371,18.185567 Z M21.8969072,14.8453608 L36,0.742268041 L49.7319588,14.8453608 L21.8969072,14.8453608 Z" id="sketch" fill="#D5DAE2"></path>
    </g>
</svg>