<?xml version="1.0" encoding="UTF-8"?>
<svg width="70px" height="72px" viewBox="0 0 70 72" version="1.1" xmlns="http://www.w3.org/2000/svg" xmlns:xlink="http://www.w3.org/1999/xlink">
    <!-- Generator: Sketch 47 (45396) - http://www.bohemiancoding.com/sketch -->
    <title>vagrant</title>
    <desc>Created with Sketch.</desc>
    <defs></defs>
    <g id="Page-1" stroke="none" stroke-width="1" fill="none" fill-rule="evenodd">
        <g id="vagrant">
            <polygon id="Combined-Shape" fill="#D5DAE2" fill-rule="nonzero" points="59.9912445 0.0119695221 44.2154145 9.25244054 44.2034449 9.25244054 44.2034449 9.26441007 44.2034449 9.26441007 44.2034449 9.26441007 44.2034449 15.5603787 34.7235835 37.6680859 34.7235835 45.053281 28.4156453 48.7159547 15.7877996 20.2763704 15.7877996 14.7105426 25.267661 9.26441007 9.46789194 0.0119695221 0 5.54188871 0 12.3166382 21.3177188 64.0848211 34.7235835 71.8291018 34.7235835 52.3786285 41.0434911 48.7159547 40.9597045 48.6680767 53.6713369 20.2763704 53.6713369 14.7225121 53.6713369 14.7105426 69.4591365 5.54188871"></polygon>
            <polygon id="Shape" fill="#C9CFD7" points="69.4591365 12.1131563 69.4591365 5.54188871 53.6713369 14.7225121 53.6713369 20.2763704 41.0434911 47.5190025 34.7235835 51.8759086 34.7235835 71.8291018 48.2611129 64.0249734"></polygon>
            <polygon id="Shape" fill="#C9CFD7" points="34.7235835 37.6680859 25.2556915 15.5603787 25.2556915 9.31228816 25.1958439 9.28834911 15.7877996 14.7225121 15.7877996 20.2763704 28.4156453 48.7159547 34.7235835 45.5919095"></polygon>
        </g>
    </g>
</svg>