<?xml version="1.0" encoding="UTF-8"?>
<svg width="72px" height="69px" viewBox="0 0 72 69" version="1.1" xmlns="http://www.w3.org/2000/svg" xmlns:xlink="http://www.w3.org/1999/xlink">
    <!-- Generator: Sketch 47 (45396) - http://www.bohemiancoding.com/sketch -->
    <title>services/web-app</title>
    <desc>Created with Sketch.</desc>
    <defs></defs>
    <g id="Page-1" stroke="none" stroke-width="1" fill="none" fill-rule="evenodd">
        <path d="M67.68,0 L4.32,0 C1.93518267,0.00252874916 0.00253974373,1.92680526 0,4.3012987 L0,53.0493506 C0.00253974373,55.4238441 1.93518267,57.3481206 4.32,57.3506494 L67.68,57.3506494 C70.0648173,57.3481206 71.9974603,55.4238441 72,53.0493506 L72,4.3012987 C71.9974603,1.92680526 70.0648173,0.00252874916 67.68,0 Z M2.88,43.012987 L2.88,4.3012987 C2.88,3.50945148 3.52470996,2.86753247 4.32,2.86753247 L67.68,2.86753247 C68.47529,2.86753247 69.12,3.50945148 69.12,4.3012987 L69.12,43.012987 L2.88,43.012987 Z M50.4,65.9532468 C51.19529,65.9532468 51.84,66.5951658 51.84,67.387013 C51.84,68.1788602 51.19529,68.8207792 50.4,68.8207792 L21.6,68.8207792 C20.80471,68.8207792 20.16,68.1788602 20.16,67.387013 C20.16,66.5951658 20.80471,65.9532468 21.6,65.9532468 L26.496,65.9532468 L27.648,60.2181818 L44.352,60.2181818 L45.504,65.9532468 L50.4,65.9532468 Z" id="services/web-app" fill="#D5DAE2" fill-rule="nonzero"></path>
    </g>
</svg>