<?xml version="1.0" encoding="UTF-8"?>
<svg width="61px" height="72px" viewBox="0 0 61 72" version="1.1" xmlns="http://www.w3.org/2000/svg" xmlns:xlink="http://www.w3.org/1999/xlink">
    <!-- Generator: Sketch 47 (45396) - http://www.bohemiancoding.com/sketch -->
    <title>services/website-review</title>
    <desc>Created with Sketch.</desc>
    <defs></defs>
    <g id="Page-1" stroke="none" stroke-width="1" fill="none" fill-rule="evenodd">
        <path d="M14.3529412,60.48 L60.2823529,60.48 L60.2823529,66.24 C60.2823529,69.4211602 57.7119407,72 54.5411765,72 L7.17647059,72 C11.1399259,72 14.3529412,68.7764502 14.3529412,64.8 L14.3529412,60.48 Z M11.4823529,63.36 C11.4823529,66.5411602 8.91194068,69.12 5.74117647,69.12 C2.57041226,69.12 3.88306624e-16,66.5411602 0,63.36 L0,4.32 C2.91229968e-16,1.93412988 1.92780919,-1.43569471e-14 4.30588235,-1.42108547e-14 L50.2352941,-1.42108547e-14 C52.6133673,-1.40647623e-14 54.5411765,1.93412988 54.5411765,4.32 L54.5411765,57.6 L11.4823529,57.6 L11.4823529,63.36 Z M27.2705882,17.28 L27.2705882,17.28 C22.9058739,17.2740022 19.0380822,20.0998715 17.704156,24.2693857 C16.3702297,28.4388999 17.8762664,32.9952761 21.4291232,35.5389338 C24.9819801,38.0825915 29.7663794,38.029835 33.2626541,35.408448 L41.0293176,43.2 L43.0588235,41.16384 L35.29216,33.371712 C37.5872811,30.3276429 37.962801,26.2409596 36.2610798,22.8272138 C34.5593586,19.413468 31.0749546,17.2635595 27.2705882,17.28 Z M27.2705882,34.56 C23.307133,34.56 20.0941176,31.3364502 20.0941176,27.36 C20.0941176,23.3835498 23.307133,20.16 27.2705882,20.16 C31.2340435,20.16 34.4470588,23.3835498 34.4470588,27.36 C34.4470588,31.3364502 31.2340435,34.56 27.2705882,34.56 Z" id="services/website-review" fill="#D5DAE2" fill-rule="nonzero"></path>
    </g>
</svg>