<?xml version="1.0" encoding="UTF-8"?>
<svg width="72px" height="72px" viewBox="0 0 72 72" version="1.1" xmlns="http://www.w3.org/2000/svg" xmlns:xlink="http://www.w3.org/1999/xlink">
    <!-- Generator: Sketch 47 (45396) - http://www.bohemiancoding.com/sketch -->
    <title>services/wordpress</title>
    <desc>Created with Sketch.</desc>
    <defs></defs>
    <g id="Page-1" stroke="none" stroke-width="1" fill="none" fill-rule="evenodd">
        <path d="M35.8606829,0 C55.6331707,0 71.7225366,16.086439 71.723122,35.8595122 C71.723122,55.6349268 55.6331707,71.7207805 35.8606829,71.7207805 C16.0876098,71.7207805 0,55.6349268 0,35.8595122 C0,16.086439 16.0876098,0 35.8606829,0 Z M35.8606829,70.0770732 C54.726439,70.0770732 70.0753171,54.7270244 70.0753171,35.8595122 C70.0753171,16.9931707 54.726439,1.64429268 35.8606829,1.64429268 C16.9937561,1.64429268 1.64429268,16.9931707 1.64429268,35.8595122 C1.64429268,54.7270244 16.9943415,70.0770732 35.8606829,70.0770732 Z M5.09736585,35.8595122 C5.09736585,31.3996098 6.05385366,27.1656585 7.76078049,23.3397073 L22.4353171,63.5461463 C12.1738537,58.5594146 5.09736585,48.0362927 5.09736585,35.8595122 Z M56.6282927,34.307122 C56.6282927,36.9406829 55.6161951,39.996878 54.2862439,44.2519024 L51.2177561,54.5057561 L40.1004878,21.4360976 C41.9514146,21.3389268 43.6214634,21.1428293 43.6214634,21.1428293 C45.2786341,20.9467317 45.0837073,18.5110244 43.4241951,18.6087805 C43.4241951,18.6087805 38.4427317,18.9992195 35.225561,18.9992195 C32.2027317,18.9992195 27.1223415,18.6087805 27.1223415,18.6087805 C25.4645854,18.5110244 25.2702439,21.0456585 26.928,21.1428293 C26.928,21.1428293 28.4973659,21.3389268 30.1539512,21.4360976 L34.9469268,34.5681951 L28.2146341,54.7592195 L17.0119024,21.4372683 C18.8663415,21.3400976 20.532878,21.144 20.532878,21.144 C22.1894634,20.9479024 21.9939512,18.5121951 20.3356098,18.6099512 C20.3356098,18.6099512 15.3547317,19.0003902 12.1369756,19.0003902 C11.5592195,19.0003902 10.8790244,18.9851707 10.1572683,18.9635122 C15.6579512,10.6115122 25.1133659,5.09736585 35.8606829,5.09736585 C43.8696585,5.09736585 51.161561,8.15882927 56.6347317,13.1730732 C56.5018537,13.1654634 56.3724878,13.1484878 56.2360976,13.1484878 C53.2150244,13.1484878 51.0702439,15.780878 51.0702439,18.6087805 C51.0702439,21.1428293 52.5319024,23.2887805 54.0913171,25.8228293 C55.2626341,27.8721951 56.6282927,30.5051707 56.6282927,34.307122 Z M36.4003902,38.550439 L45.857561,64.4569756 C45.9190244,64.6091707 45.9939512,64.7490732 46.0764878,64.8807805 C42.8786341,66.0052683 39.443122,66.6245854 35.8606829,66.6245854 C32.8407805,66.6245854 29.9262439,66.1814634 27.1703415,65.3713171 L36.4003902,38.550439 Z M62.8542439,21.1000976 C65.2571707,25.4821463 66.6234146,30.5116098 66.6228293,35.8600976 C66.6228293,47.2091707 60.4712195,57.1176585 51.3254634,62.4509268 L60.7223415,35.2823415 C62.478439,30.894439 63.0614634,27.3851707 63.0614634,24.2634146 C63.0614634,23.1319024 62.9865366,22.08 62.8542439,21.1000976 Z" id="services/wordpress" fill="#D5DAE2" fill-rule="nonzero"></path>
    </g>
</svg>